<svg xmlns="http://www.w3.org/2000/svg" xmlns:svg="http://www.w3.org/2000/svg" id="svg5145" width="23" height="30" version="1.1" viewBox="0 0 6.085 7.938"><metadata id="metadata5142"/><g id="layer1" transform="translate(-14.344196,-33.739583)"><path style="fill:#39b54a;stroke-width:.26458332" id="Combined-Shape" d="m 16.896145,35.481961 v -0.387195 h -2.551949 v -0.967988 h 2.551949 v -0.387195 h 0.981519 v 0.387195 h 2.551949 v 0.967988 h -2.551949 v 0.387195 h 2.551949 v 0.967988 h -6.085417 v -0.967988 z"/><path style="fill:#6b4c9f;stroke-width:.26458332" id="Shape" d="m 20.429613,36.837144 c -0.05665,1.358158 -0.309133,2.438339 -0.757307,3.151722 -0.448341,0.713531 -1.211252,1.246761 -2.285401,1.688217 -1.074316,-0.441456 -1.837227,-0.974686 -2.285402,-1.688217 -0.448325,-0.713383 -0.700811,-1.793564 -0.757307,-3.151722 h 1.092189 c -0.02121,1.00995 0.127682,1.821599 0.446811,2.434651 0.319281,0.613199 0.821527,1.06041 1.503709,1.341632 0.682031,-0.281222 1.184428,-0.728433 1.503557,-1.341632 0.319129,-0.613052 0.468168,-1.424701 0.446811,-2.434651 z"/></g></svg>